<?xml version="1.0" standalone="no"?>
<!DOCTYPE svg PUBLIC "-//W3C//DTD SVG 20010904//EN"
 "http://www.w3.org/TR/2001/REC-SVG-20010904/DTD/svg10.dtd">
<svg version="1.0" xmlns="http://www.w3.org/2000/svg"
 width="420.000000pt" height="420.000000pt" viewBox="0 0 420.000000 420.000000"
 preserveAspectRatio="xMidYMid meet">
<metadata>
Created by potrace 1.11, written by Peter Selinger 2001-2013
</metadata>
<g transform="translate(0.000000,420.000000) scale(0.100000,-0.100000)"
fill="#000000" stroke="none">
<path d="M2043 3998 c-13 -6 -23 -17 -23 -25 0 -7 -4 -13 -10 -13 -5 0 -10 -6
-10 -14 0 -8 -4 -16 -9 -18 -8 -3 -350 -690 -354 -712 -1 -6 -5 -13 -8 -16
-13 -11 -87 -169 -82 -174 4 -3 1 -6 -5 -6 -10 0 -23 -25 -21 -44 0 -5 -4 -12
-9 -15 -5 -3 -25 -37 -44 -76 -27 -55 -39 -69 -59 -71 -13 -1 -37 -4 -54 -7
-16 -3 -55 -9 -85 -13 -90 -12 -127 -17 -205 -30 -16 -3 -43 -7 -60 -9 -33 -3
-85 -11 -183 -26 -34 -5 -83 -12 -108 -15 -24 -3 -84 -11 -131 -19 -48 -8 -90
-12 -95 -9 -4 3 -8 0 -8 -6 0 -6 -4 -9 -9 -6 -5 3 -33 2 -62 -4 -30 -5 -74
-11 -99 -15 -156 -19 -204 -44 -216 -110 -5 -28 20 -91 42 -103 9 -5 16 -13
17 -18 2 -16 31 -44 44 -44 7 0 12 -6 11 -12 -2 -7 3 -12 10 -10 6 1 12 -2 12
-7 0 -5 26 -34 58 -64 31 -31 109 -106 173 -169 64 -62 218 -212 342 -333 197
-191 226 -223 222 -245 -2 -14 -7 -42 -10 -64 -4 -21 -8 -48 -11 -60 -6 -32
-34 -197 -39 -231 -4 -29 -10 -65 -20 -115 -10 -48 -13 -65 -19 -110 -3 -25
-8 -56 -11 -70 -7 -30 -25 -135 -30 -170 -2 -14 -10 -63 -19 -110 -9 -47 -18
-103 -22 -125 -3 -22 -8 -51 -11 -65 -13 -62 -14 -143 -3 -171 24 -58 94 -72
167 -34 15 8 33 15 40 15 7 0 16 7 21 16 5 9 12 15 16 14 10 -2 150 71 157 82
3 5 8 9 10 9 11 -4 69 22 69 30 0 5 6 9 14 9 7 0 46 18 85 39 39 22 81 43 91
46 11 4 20 11 20 16 0 6 4 8 8 5 5 -3 21 4 38 15 16 10 67 38 114 61 47 23 87
46 88 50 2 4 11 8 21 8 9 0 27 9 39 20 12 12 22 19 22 16 0 -3 55 24 123 59
l123 64 44 -22 c25 -12 48 -26 52 -32 4 -5 8 -6 8 -1 0 5 6 4 13 -2 12 -10
115 -65 312 -166 55 -28 102 -53 105 -56 5 -5 152 -81 325 -169 50 -25 92 -48
95 -51 8 -9 162 -84 179 -88 68 -16 103 -3 127 46 18 39 15 125 -11 252 -3 14
-7 39 -10 55 -3 17 -7 44 -10 60 -3 17 -8 46 -10 65 -3 19 -8 46 -11 60 -3 14
-8 43 -10 65 -3 22 -8 49 -11 60 -4 11 -7 29 -8 40 -1 11 -5 38 -9 60 -5 22
-10 51 -12 65 -7 47 -16 95 -21 120 -3 14 -5 33 -5 42 0 10 -4 20 -9 23 -5 4
-7 10 -4 15 3 5 1 28 -4 52 -5 24 -12 61 -15 83 -4 22 -11 67 -17 100 -5 33
-12 69 -13 80 -4 20 30 55 293 309 44 43 81 82 81 87 0 5 4 9 8 9 7 0 93 82
373 355 59 57 104 107 101 110 -3 3 1 5 9 5 20 0 57 58 64 100 7 41 -9 77 -45
95 -30 16 -150 41 -233 50 -32 4 -68 8 -80 11 -11 2 -39 6 -62 9 -22 3 -51 8
-65 10 -14 3 -47 7 -75 10 -27 3 -57 8 -65 10 -8 2 -40 7 -70 11 -65 8 -73 9
-125 17 -22 4 -57 9 -77 12 -21 3 -53 7 -70 10 -18 3 -46 7 -63 9 -46 6 -127
17 -155 22 -14 2 -45 6 -70 9 -74 9 -90 15 -90 31 0 9 -5 12 -12 8 -7 -4 -10
-4 -6 0 6 7 -96 224 -111 236 -3 3 -6 10 -6 15 -1 15 -217 449 -228 456 -5 3
-8 8 -6 10 4 7 -12 49 -20 49 -4 0 -8 10 -8 22 -1 13 -7 24 -13 26 -5 2 -10
10 -10 18 0 8 -4 14 -10 14 -5 0 -9 3 -8 8 5 13 -24 72 -35 72 -6 0 -7 3 -4 6
9 10 -80 178 -110 208 -28 28 -79 34 -120 14z"/>
</g>
</svg>
